<svg width="251" height="102" viewBox="0 0 251 102" fill="none" xmlns="http://www.w3.org/2000/svg">
<rect width="251" height="102" rx="10" fill="white"/>
<path d="M29.9596 36.086C29.6143 36.086 29.2269 36.0347 28.7976 35.932C28.3776 35.8293 27.9156 35.638 27.4116 35.358C26.9076 35.078 26.3709 34.6673 25.8016 34.126C25.0456 34.0793 24.3969 33.8833 23.8556 33.538C23.3236 33.1833 22.9129 32.7167 22.6236 32.138C22.3343 31.55 22.1896 30.878 22.1896 30.122C22.1896 29.3847 22.3249 28.6847 22.5956 28.022C22.8663 27.3593 23.2443 26.7713 23.7296 26.258C24.2243 25.7447 24.7983 25.3433 25.4516 25.054C26.1049 24.7553 26.8143 24.606 27.5796 24.606C28.4009 24.606 29.1103 24.7787 29.7076 25.124C30.3049 25.46 30.7623 25.9313 31.0796 26.538C31.3969 27.1447 31.5556 27.8447 31.5556 28.638C31.5556 29.4313 31.3969 30.1827 31.0796 30.892C30.7716 31.6013 30.3376 32.222 29.7776 32.754C29.2176 33.2767 28.5596 33.6547 27.8036 33.888C28.3449 34.3453 28.7929 34.6907 29.1476 34.924C29.5116 35.1573 29.8336 35.316 30.1136 35.4C30.4029 35.484 30.7016 35.526 31.0096 35.526C31.1589 35.526 31.2989 35.512 31.4296 35.484C31.5603 35.4653 31.6723 35.4373 31.7656 35.4L31.6816 35.708C31.4669 35.8107 31.2103 35.8993 30.9116 35.974C30.6223 36.0487 30.3049 36.086 29.9596 36.086ZM26.4876 33.44C26.9729 33.44 27.4116 33.314 27.8036 33.062C28.2049 32.8007 28.5503 32.446 28.8396 31.998C29.1289 31.5407 29.3529 31.018 29.5116 30.43C29.6703 29.8327 29.7496 29.2027 29.7496 28.54C29.7496 27.9053 29.6563 27.3453 29.4696 26.86C29.2829 26.3653 29.0076 25.9827 28.6436 25.712C28.2796 25.432 27.8363 25.292 27.3136 25.292C26.8376 25.292 26.3989 25.4227 25.9976 25.684C25.5963 25.936 25.2463 26.286 24.9476 26.734C24.6489 27.182 24.4156 27.7047 24.2476 28.302C24.0889 28.89 24.0096 29.52 24.0096 30.192C24.0096 30.8267 24.1076 31.3913 24.3036 31.886C24.5089 32.3713 24.7936 32.754 25.1576 33.034C25.5309 33.3047 25.9743 33.44 26.4876 33.44ZM34.446 34.14C34.0727 34.14 33.7647 34.0047 33.522 33.734C33.2887 33.4633 33.172 33.0853 33.172 32.6C33.172 32.4413 33.186 32.264 33.214 32.068L33.83 28.596L32.85 28.12V27.98L35.538 27.504H35.58L34.838 31.802C34.8007 32.026 34.782 32.1893 34.782 32.292C34.782 32.5067 34.8334 32.6887 34.936 32.838C35.0387 32.9873 35.2067 33.062 35.44 33.062C35.664 33.062 35.8927 32.964 36.126 32.768C36.3687 32.5627 36.5834 32.3573 36.77 32.152L37.386 28.596L36.546 28.12V27.98L39.094 27.504H39.15L38.31 32.264C38.226 32.7307 38.3054 32.964 38.548 32.964C38.6974 32.964 38.8514 32.8847 39.01 32.726C39.178 32.5673 39.346 32.306 39.514 31.942L39.752 32.026C39.4814 32.7167 39.1827 33.244 38.856 33.608C38.5294 33.9627 38.1607 34.14 37.75 34.14C37.3767 34.14 37.0967 34.0233 36.91 33.79C36.7327 33.5473 36.658 33.202 36.686 32.754H36.658C36.3594 33.09 36.0934 33.3607 35.86 33.566C35.636 33.762 35.412 33.9067 35.188 34C34.9734 34.0933 34.726 34.14 34.446 34.14ZM41.7396 34.14C41.3569 34.14 41.0443 33.9813 40.8016 33.664C40.5683 33.3467 40.4516 32.8893 40.4516 32.292C40.4516 31.648 40.5589 31.0413 40.7736 30.472C40.9976 29.8933 41.2963 29.38 41.6696 28.932C42.0429 28.484 42.4583 28.134 42.9156 27.882C43.3823 27.63 43.8583 27.504 44.3436 27.504C44.5863 27.504 44.8149 27.5367 45.0296 27.602C45.2536 27.658 45.4449 27.7373 45.6036 27.84L46.2336 27.56H46.5416L45.7016 32.264C45.6269 32.7307 45.7063 32.964 45.9396 32.964C46.0796 32.964 46.2336 32.8847 46.4016 32.726C46.5696 32.5673 46.7376 32.306 46.9056 31.942L47.1296 32.026C46.6069 33.4353 45.9396 34.14 45.1276 34.14C44.7263 34.14 44.4323 34 44.2456 33.72C44.0683 33.44 44.0169 33.0387 44.0916 32.516H44.0636C43.6716 33.0573 43.2936 33.4633 42.9296 33.734C42.5656 34.0047 42.1689 34.14 41.7396 34.14ZM42.0756 31.592C42.0756 32.0587 42.1223 32.404 42.2156 32.628C42.3089 32.852 42.4863 32.964 42.7476 32.964C43.0089 32.964 43.2656 32.8473 43.5176 32.614C43.7696 32.3713 43.9983 32.1007 44.2036 31.802L44.7776 28.568C44.6563 28.4187 44.5256 28.3067 44.3856 28.232C44.2456 28.148 44.0776 28.106 43.8816 28.106C43.5176 28.106 43.2003 28.274 42.9296 28.61C42.6589 28.9367 42.4489 29.366 42.2996 29.898C42.1503 30.43 42.0756 30.9947 42.0756 31.592ZM49.0091 34.14C48.5891 34.14 48.2858 33.9907 48.0991 33.692C47.9218 33.384 47.8844 32.95 47.9871 32.39L49.3451 24.592L48.2391 24.13V23.976L51.0811 23.5H51.1231L49.5831 32.264C49.4991 32.7307 49.5738 32.964 49.8071 32.964C49.9564 32.964 50.1104 32.8847 50.2691 32.726C50.4371 32.5673 50.6051 32.306 50.7731 31.942L51.0111 32.026C50.7404 32.7167 50.4418 33.244 50.1151 33.608C49.7884 33.9627 49.4198 34.14 49.0091 34.14ZM54.0673 25.978C53.8059 25.978 53.5866 25.8893 53.4093 25.712C53.2319 25.5347 53.1433 25.3153 53.1433 25.054C53.1433 24.7927 53.2319 24.5733 53.4093 24.396C53.5866 24.2187 53.8059 24.13 54.0673 24.13C54.3286 24.13 54.5479 24.2187 54.7253 24.396C54.9026 24.5733 54.9913 24.7927 54.9913 25.054C54.9913 25.3153 54.9026 25.5347 54.7253 25.712C54.5479 25.8893 54.3286 25.978 54.0673 25.978ZM53.1153 34.14C52.6953 34.14 52.3919 33.9907 52.2053 33.692C52.0279 33.384 51.9906 32.95 52.0933 32.39L52.7653 28.596L51.7293 28.12V27.98L54.5013 27.504H54.5433L53.6893 32.264C53.6146 32.7307 53.6939 32.964 53.9273 32.964C54.0673 32.964 54.2213 32.8847 54.3893 32.726C54.5573 32.5673 54.7253 32.306 54.8933 31.942L55.1173 32.026C54.5946 33.4353 53.9273 34.14 53.1153 34.14ZM57.4115 34.14C57.0008 34.14 56.6835 34.0187 56.4595 33.776C56.2448 33.5333 56.1375 33.1833 56.1375 32.726C56.1375 32.6233 56.1422 32.5207 56.1515 32.418C56.1702 32.3153 56.1888 32.208 56.2075 32.096L56.8795 28.26H55.9415L55.9695 28.092L57.3695 27.448L58.6295 26.146H58.8255L58.5735 27.644H60.2815V28.26H58.4615L57.8595 31.606C57.8222 31.8673 57.8035 32.0633 57.8035 32.194C57.8035 32.614 57.9575 32.824 58.2655 32.824C58.4802 32.824 58.6995 32.7167 58.9235 32.502C59.1568 32.2873 59.3668 31.9513 59.5535 31.494L59.8055 31.578C59.5162 32.4367 59.1662 33.0807 58.7555 33.51C58.3448 33.93 57.8968 34.14 57.4115 34.14ZM60.127 37.36C59.8656 37.36 59.735 37.2247 59.735 36.954V36.044L59.833 35.96H60.575C60.827 35.96 61.0276 35.946 61.177 35.918C61.3263 35.8993 61.457 35.848 61.569 35.764C61.681 35.6893 61.7976 35.5633 61.919 35.386C62.0403 35.218 62.199 34.98 62.395 34.672L62.731 34.14L61.303 28.54L60.281 28.12V27.98L62.661 27.504H62.703L63.865 32.236H63.921L64.761 30.906C65.013 30.5047 65.1716 30.1827 65.237 29.94C65.3116 29.6973 65.349 29.5013 65.349 29.352C65.349 29.184 65.3116 29.0487 65.237 28.946C65.1623 28.834 65.0596 28.7407 64.929 28.666L64.733 28.54V28.484L65.041 27.868C65.125 27.7187 65.195 27.6207 65.251 27.574C65.307 27.5273 65.3956 27.504 65.517 27.504C65.7596 27.504 65.9696 27.63 66.147 27.882C66.3336 28.1247 66.427 28.386 66.427 28.666C66.427 28.9367 66.3476 29.226 66.189 29.534C66.0396 29.8327 65.7923 30.2527 65.447 30.794L62.661 35.106C62.521 35.3207 62.409 35.498 62.325 35.638C62.241 35.7873 62.1476 35.9273 62.045 36.058C61.9516 36.198 61.821 36.366 61.653 36.562C61.4196 36.8327 61.1723 37.0333 60.911 37.164C60.659 37.2947 60.3976 37.36 60.127 37.36Z" fill="#4C4C4C"/>
<rect x="21" y="57" width="204" height="11" fill="#E6E6E6"/>
<rect x="21" y="57" width="204" height="11" fill="url(#paint0_linear_4_2)"/>
<path d="M191.459 36V26.2H192.971V30.4H197.087V26.2H198.599V36H197.087V31.772H192.971V36H191.459ZM201.627 36V26.2H203.139V36H201.627ZM209.563 36.196C208.863 36.196 208.238 36.0467 207.687 35.748C207.137 35.44 206.703 34.992 206.385 34.404C206.068 33.816 205.909 33.0973 205.909 32.248V29.952C205.909 28.6733 206.259 27.698 206.959 27.026C207.659 26.3447 208.607 26.004 209.801 26.004C210.977 26.004 211.883 26.326 212.517 26.97C213.152 27.6047 213.469 28.4587 213.469 29.532V29.602H211.971V29.49C211.971 29.0887 211.892 28.7293 211.733 28.412C211.575 28.0853 211.337 27.8287 211.019 27.642C210.702 27.4553 210.296 27.362 209.801 27.362C209.055 27.362 208.471 27.5907 208.051 28.048C207.631 28.496 207.421 29.1213 207.421 29.924V32.276C207.421 33.0693 207.631 33.6993 208.051 34.166C208.471 34.6233 209.059 34.852 209.815 34.852C210.562 34.852 211.108 34.6467 211.453 34.236C211.799 33.8253 211.971 33.2933 211.971 32.64V32.458H209.339V31.156H213.469V36H212.069V35.006H211.845C211.761 35.1833 211.635 35.3653 211.467 35.552C211.309 35.7387 211.075 35.8927 210.767 36.014C210.469 36.1353 210.067 36.196 209.563 36.196ZM216.397 36V26.2H217.909V30.4H222.025V26.2H223.537V36H222.025V31.772H217.909V36H216.397Z" fill="black"/>
<path d="M125 57V68" stroke="black" stroke-opacity="0.1"/>
<path d="M24.3997 84.14C23.5864 84.14 22.9364 83.91 22.4497 83.45C21.9697 82.9833 21.7297 82.2833 21.7297 81.35V79.65C21.7297 78.7367 21.9697 78.0433 22.4497 77.57C22.9364 77.0967 23.5864 76.86 24.3997 76.86C25.2197 76.86 25.8697 77.0967 26.3497 77.57C26.8364 78.0433 27.0797 78.7367 27.0797 79.65V81.35C27.0797 82.2833 26.8364 82.9833 26.3497 83.45C25.8697 83.91 25.2197 84.14 24.3997 84.14ZM24.3997 83.2C24.953 83.2 25.363 83.0433 25.6297 82.73C25.8964 82.41 26.0297 81.9633 26.0297 81.39V79.59C26.0297 79.0167 25.8864 78.5767 25.5997 78.27C25.313 77.9567 24.913 77.8 24.3997 77.8C23.8797 77.8 23.4797 77.96 23.1997 78.28C22.9197 78.5933 22.7797 79.03 22.7797 79.59V81.39C22.7797 81.9767 22.913 82.4267 23.1797 82.74C23.453 83.0467 23.8597 83.2 24.3997 83.2ZM31.5838 84.13L30.9438 83.61L36.4138 76.87L37.0538 77.39L31.5838 84.13ZM35.9138 84.11C35.4205 84.11 35.0305 83.9733 34.7438 83.7C34.4572 83.42 34.3138 83.0433 34.3138 82.57V82.51C34.3138 82.03 34.4572 81.6533 34.7438 81.38C35.0305 81.1 35.4205 80.96 35.9138 80.96C36.4005 80.96 36.7905 81.1 37.0838 81.38C37.3772 81.6533 37.5238 82.03 37.5238 82.51V82.57C37.5238 83.0433 37.3772 83.42 37.0838 83.7C36.7972 83.9733 36.4072 84.11 35.9138 84.11ZM35.9138 83.41C36.1538 83.41 36.3405 83.3367 36.4738 83.19C36.6138 83.0433 36.6838 82.85 36.6838 82.61V82.47C36.6838 82.2233 36.6138 82.0267 36.4738 81.88C36.3405 81.7333 36.1538 81.66 35.9138 81.66C35.6805 81.66 35.4938 81.7333 35.3538 81.88C35.2205 82.0267 35.1538 82.2233 35.1538 82.47V82.61C35.1538 82.85 35.2205 83.0433 35.3538 83.19C35.4938 83.3367 35.6805 83.41 35.9138 83.41ZM32.0838 80.04C31.5905 80.04 31.1972 79.9033 30.9038 79.63C30.6172 79.35 30.4738 78.9733 30.4738 78.5V78.43C30.4738 77.95 30.6172 77.5733 30.9038 77.3C31.1972 77.0267 31.5905 76.89 32.0838 76.89C32.5705 76.89 32.9572 77.0267 33.2438 77.3C33.5372 77.5733 33.6838 77.95 33.6838 78.43V78.5C33.6838 78.9733 33.5405 79.35 33.2538 79.63C32.9672 79.9033 32.5772 80.04 32.0838 80.04ZM32.0838 79.34C32.3172 79.34 32.5005 79.2667 32.6338 79.12C32.7738 78.9667 32.8438 78.77 32.8438 78.53V78.39C32.8438 78.15 32.7738 77.9567 32.6338 77.81C32.5005 77.6633 32.3172 77.59 32.0838 77.59C31.8438 77.59 31.6538 77.6633 31.5138 77.81C31.3805 77.9567 31.3138 78.15 31.3138 78.39V78.53C31.3138 78.77 31.3805 78.9667 31.5138 79.12C31.6538 79.2667 31.8438 79.34 32.0838 79.34Z" fill="black" fill-opacity="0.3"/>
<path d="M199.854 84V77.74H199.694L198.544 80.1H197.434L198.984 77H200.904V84H199.854ZM204.85 84.14C204.037 84.14 203.387 83.91 202.9 83.45C202.42 82.9833 202.18 82.2833 202.18 81.35V79.65C202.18 78.7367 202.42 78.0433 202.9 77.57C203.387 77.0967 204.037 76.86 204.85 76.86C205.67 76.86 206.32 77.0967 206.8 77.57C207.287 78.0433 207.53 78.7367 207.53 79.65V81.35C207.53 82.2833 207.287 82.9833 206.8 83.45C206.32 83.91 205.67 84.14 204.85 84.14ZM204.85 83.2C205.403 83.2 205.813 83.0433 206.08 82.73C206.347 82.41 206.48 81.9633 206.48 81.39V79.59C206.48 79.0167 206.337 78.5767 206.05 78.27C205.763 77.9567 205.363 77.8 204.85 77.8C204.33 77.8 203.93 77.96 203.65 78.28C203.37 78.5933 203.23 79.03 203.23 79.59V81.39C203.23 81.9767 203.363 82.4267 203.63 82.74C203.903 83.0467 204.31 83.2 204.85 83.2ZM211.295 84.14C210.482 84.14 209.832 83.91 209.345 83.45C208.865 82.9833 208.625 82.2833 208.625 81.35V79.65C208.625 78.7367 208.865 78.0433 209.345 77.57C209.832 77.0967 210.482 76.86 211.295 76.86C212.115 76.86 212.765 77.0967 213.245 77.57C213.732 78.0433 213.975 78.7367 213.975 79.65V81.35C213.975 82.2833 213.732 82.9833 213.245 83.45C212.765 83.91 212.115 84.14 211.295 84.14ZM211.295 83.2C211.849 83.2 212.259 83.0433 212.525 82.73C212.792 82.41 212.925 81.9633 212.925 81.39V79.59C212.925 79.0167 212.782 78.5767 212.495 78.27C212.209 77.9567 211.809 77.8 211.295 77.8C210.775 77.8 210.375 77.96 210.095 78.28C209.815 78.5933 209.675 79.03 209.675 79.59V81.39C209.675 81.9767 209.809 82.4267 210.075 82.74C210.349 83.0467 210.755 83.2 211.295 83.2ZM218.479 84.13L217.839 83.61L223.309 76.87L223.949 77.39L218.479 84.13ZM222.809 84.11C222.316 84.11 221.926 83.9733 221.639 83.7C221.353 83.42 221.209 83.0433 221.209 82.57V82.51C221.209 82.03 221.353 81.6533 221.639 81.38C221.926 81.1 222.316 80.96 222.809 80.96C223.296 80.96 223.686 81.1 223.979 81.38C224.273 81.6533 224.419 82.03 224.419 82.51V82.57C224.419 83.0433 224.273 83.42 223.979 83.7C223.693 83.9733 223.303 84.11 222.809 84.11ZM222.809 83.41C223.049 83.41 223.236 83.3367 223.369 83.19C223.509 83.0433 223.579 82.85 223.579 82.61V82.47C223.579 82.2233 223.509 82.0267 223.369 81.88C223.236 81.7333 223.049 81.66 222.809 81.66C222.576 81.66 222.389 81.7333 222.249 81.88C222.116 82.0267 222.049 82.2233 222.049 82.47V82.61C222.049 82.85 222.116 83.0433 222.249 83.19C222.389 83.3367 222.576 83.41 222.809 83.41ZM218.979 80.04C218.486 80.04 218.093 79.9033 217.799 79.63C217.513 79.35 217.369 78.9733 217.369 78.5V78.43C217.369 77.95 217.513 77.5733 217.799 77.3C218.093 77.0267 218.486 76.89 218.979 76.89C219.466 76.89 219.853 77.0267 220.139 77.3C220.433 77.5733 220.579 77.95 220.579 78.43V78.5C220.579 78.9733 220.436 79.35 220.149 79.63C219.863 79.9033 219.473 80.04 218.979 80.04ZM218.979 79.34C219.213 79.34 219.396 79.2667 219.529 79.12C219.669 78.9667 219.739 78.77 219.739 78.53V78.39C219.739 78.15 219.669 77.9567 219.529 77.81C219.396 77.6633 219.213 77.59 218.979 77.59C218.739 77.59 218.549 77.6633 218.409 77.81C218.276 77.9567 218.209 78.15 218.209 78.39V78.53C218.209 78.77 218.276 78.9667 218.409 79.12C218.549 79.2667 218.739 79.34 218.979 79.34Z" fill="black" fill-opacity="0.3"/>
<defs>
<linearGradient id="paint0_linear_4_2" x1="21" y1="62.5" x2="225" y2="62.5" gradientUnits="userSpaceOnUse">
<stop stop-color="#ABBD48"/>
<stop offset="1" stop-color="#5F9F36"/>
</linearGradient>
</defs>
</svg>
