<svg width="495" height="121" viewBox="0 0 495 121" fill="none" xmlns="http://www.w3.org/2000/svg">
<path d="M204.674 17.2634C195.527 17.2634 188.876 19.4256 183.224 24.4134L173.245 33.0586C172.413 33.7255 170.75 34.2239 169.588 33.2236C168.423 32.2268 168.258 30.8965 169.254 29.5661L174.576 21.5843C175.408 20.419 174.744 18.9237 173.245 18.9237H160.441C158.945 18.9237 157.78 20.089 157.78 21.5843V99.4088C157.78 100.904 158.945 102.069 160.441 102.069H173.744C175.239 102.069 176.404 100.904 176.404 99.4088V55.5088C176.404 35.3892 193.2 32.2302 199.518 32.2302C212.986 32.2302 217.809 41.8758 217.809 49.1907V99.4088C217.809 100.904 218.974 102.069 220.469 102.069H233.772C235.268 102.069 236.433 100.904 236.433 99.4088V47.527C236.433 28.9027 224.292 17.2634 204.671 17.2634H204.674Z" fill="black" fill-opacity="0.4"/>
<path d="M290.639 16.93C264.864 16.93 248.402 32.7286 248.402 54.1785V65.9862C248.402 88.6014 264.864 104.067 290.639 104.067C313.419 104.067 329.382 92.2588 331.046 76.2952C331.215 74.6315 330.049 73.4696 328.386 73.4696H315.416C314.251 73.4696 313.254 74.1365 312.92 75.2983C311.257 80.6195 303.443 88.6014 290.639 88.6014C277.834 88.6014 265.861 79.2892 266.026 65.9862L266.195 51.1879C266.36 40.047 278.002 32.3986 290.639 32.3986C302.113 32.3986 313.254 38.8852 314.416 49.5276C314.512 50.7582 313.666 51.8685 312.453 52.1023L275.17 59.3381C273.675 59.6716 272.509 61.0019 272.509 62.6622V62.8272C272.509 64.3225 274.005 65.6528 276.167 65.6528H329.712C331.184 65.6528 332.373 64.46 332.373 62.9922V52.5182C332.373 32.7321 315.244 16.9334 290.635 16.9334L290.639 16.93Z" fill="black" fill-opacity="0.4"/>
<path d="M383.423 16.93C362.637 16.93 344.679 29.0677 344.679 45.0314C344.679 46.3617 345.844 47.3585 347.34 47.3585H360.808C362.138 47.3585 363.135 46.3617 363.303 45.0314C364.634 37.7164 373.447 32.3952 382.925 32.3952C394.23 32.3952 401.882 39.3802 401.882 51.3529V65.8212C401.882 80.6196 390.906 88.1029 377.27 88.1029C366.627 88.1029 360.474 84.112 360.474 77.6255C360.474 71.9709 363.468 67.1481 375.771 64.3225L393.564 59.4997C395.392 59.0013 396.059 57.5025 395.726 55.8422C395.561 54.5119 394.065 53.8451 392.732 53.8451H374.276C358.646 53.8451 342.847 63.8206 342.847 78.4539V80.7811C342.847 95.7479 356.982 103.561 373.111 103.561C383.42 103.561 392.233 99.5704 397.719 94.916L405.87 87.9311C407.2 86.7658 408.53 86.7658 409.692 87.9311C410.689 88.9279 410.356 90.4267 409.524 91.5885L404.536 99.4054C403.704 100.571 404.367 102.066 405.866 102.066H417.839C419.334 102.066 420.5 100.901 420.5 99.4054V49.0188C420.5 29.7312 406.698 16.9266 383.416 16.9266L383.423 16.93Z" fill="black" fill-opacity="0.4"/>
<path d="M492.336 18.9272H473.712C467.229 18.9272 460.907 22.9181 456.418 26.744L449.103 33.0621C448.271 33.7289 446.772 34.2274 445.775 33.3955C444.61 32.5636 444.112 30.8999 445.112 29.5696L450.433 21.5878C451.265 20.4225 450.602 18.9272 449.103 18.9272H436.632C435.136 18.9272 433.971 20.0925 433.971 21.5878V99.4122C433.971 100.908 435.136 102.073 436.632 102.073H450.268C451.763 102.073 452.929 100.908 452.929 99.4122V59.5031C452.929 42.3742 459.914 34.7258 475.045 34.7258H492.339C493.835 34.7258 495 33.5605 495 32.0652V21.5878C495 20.0925 493.835 18.9272 492.339 18.9272H492.336Z" fill="black" fill-opacity="0.4"/>
<path d="M108.107 0C103.626 0 99.4654 2.32348 97.1178 6.14308L71.8257 43.6944C71.0019 44.932 71.3363 46.6005 72.5738 47.4244C73.5769 48.0932 74.9041 48.0105 75.8176 47.2245L100.713 25.6306C101.127 25.2583 101.765 25.2962 102.137 25.7099C102.306 25.8995 102.395 26.1443 102.395 26.3959V94.0042C102.395 94.5627 101.944 95.0108 101.385 95.0108C101.086 95.0108 100.803 94.8799 100.613 94.6489L25.3576 4.56422C22.9066 1.67194 19.3077 0.00344729 15.5193 0H12.8891C5.7706 0 0 5.77077 0 12.8894V108.111C0 115.229 5.7706 121 12.8891 121C17.3704 121 21.5312 118.677 23.8787 114.857L49.1708 77.3056C49.9947 76.068 49.6603 74.3995 48.4227 73.5756C47.4196 72.9068 46.0924 72.9895 45.1789 73.7755L20.2833 95.3694C19.8696 95.7417 19.2319 95.7038 18.8596 95.2901C18.6907 95.1005 18.6011 94.8557 18.6045 94.6041V26.9785C18.6045 26.4201 19.0561 25.9719 19.6145 25.9719C19.911 25.9719 20.1971 26.1029 20.3867 26.3339L95.6321 116.436C98.083 119.328 101.682 120.997 105.47 121H108.101C115.219 121.003 120.993 115.236 121 108.117V12.8894C121 5.77077 115.229 0 108.111 0H108.107Z" fill="black" fill-opacity="0.4"/>
</svg>
