<svg width="435" height="122" viewBox="0 0 435 122" fill="none" xmlns="http://www.w3.org/2000/svg">
<path d="M122.558 0.216919H143.323L100.103 43.9066C84.4552 59.7289 59.1117 59.7289 43.4634 43.9066L0.261094 0.216919H21.0268L53.855 33.4107C63.6025 43.3148 79.5466 43.4367 89.4508 33.6892C89.5378 33.6021 89.6423 33.4977 89.7293 33.4107L122.558 0.216919ZM20.7657 121.713H0L43.4809 77.7444C59.1291 61.9221 84.4726 61.9221 100.121 77.7444L143.584 121.713H122.819L89.7293 88.2578C79.9818 78.3536 64.0377 78.2318 54.1335 87.9793C54.0465 88.0663 53.942 88.1708 53.855 88.2578L20.7657 121.713Z" fill="black" fill-opacity="0.4"/>
<path d="M396.288 0.216919H396.306C401.615 0.321357 406.593 1.36573 411.223 3.35005C415.94 5.21252 420.083 7.80605 423.616 11.1132C427.185 14.4378 429.97 18.3542 431.971 22.8451C433.99 27.2663 435 31.9485 435 36.8919C435 41.9397 433.938 46.7439 431.797 51.2695C429.795 55.6733 426.941 59.5723 423.286 62.9839C419.735 66.2911 415.522 68.9369 410.718 70.9038H410.701C405.949 72.7836 400.849 73.7236 395.418 73.7236H350.092V121.295H334.148V0.216919L396.288 0.216919ZM395.418 59.0501C398.621 59.0501 401.65 58.4757 404.522 57.3269C407.428 56.1781 409.952 54.5941 412.111 52.575C414.269 50.5732 415.992 48.1886 417.211 45.508C418.447 42.8449 419.056 39.9728 419.056 36.8919C419.056 33.9154 418.447 31.0956 417.211 28.4325C415.992 25.7693 414.252 23.3672 412.111 21.3655C409.952 19.3464 407.428 17.7798 404.522 16.6136C401.65 15.4648 398.621 14.8904 395.418 14.8904H350.092V59.0501H395.418Z" fill="black" fill-opacity="0.4"/>
<path d="M218.309 73.9847C226.299 73.9847 233.871 77.3615 238.884 83.1752L271.816 121.312H292.321L247.273 68.4495C242.26 62.5662 234.654 59.1371 226.595 59.1371H195.385V15.0819H240.711C243.914 15.0819 246.943 15.6563 249.815 16.8051C252.722 17.9713 255.245 19.5553 257.404 21.557L257.439 21.5918C259.58 23.4891 261.268 25.7693 262.504 28.4673C263.74 31.1304 264.349 34.0025 264.349 37.1008C264.349 40.1817 263.722 43.0537 262.504 45.7169C261.755 47.266 260.85 48.7282 259.771 50.0685L270.145 61.6436C270.267 61.5044 270.406 61.3651 270.528 61.2259C273.592 57.9187 275.959 54.246 277.613 50.1729C279.388 46.065 280.276 41.696 280.276 37.0834C280.276 32.14 279.266 27.4403 277.247 23.0191C275.245 18.5109 272.46 14.5945 268.892 11.2699C265.341 7.96271 261.216 5.33436 256.516 3.35005C251.869 1.36573 246.89 0.321357 241.564 0.216919H187.378C185.185 0.216919 183.271 1.03501 181.704 2.51455C180.19 3.92445 179.406 5.66508 179.406 7.64939V121.295H195.351V73.9847H218.309Z" fill="black" fill-opacity="0.4"/>
</svg>
