<svg width="441" height="78" viewBox="0 0 441 78" fill="none" xmlns="http://www.w3.org/2000/svg">
<path d="M18.04 44.25H51.09C51.84 44.25 52.45 43.64 52.45 42.89V33.57C52.45 32.82 51.84 32.21 51.09 32.21H18.04C17.29 32.21 16.68 31.6 16.68 30.85V15.31C16.68 14.56 17.29 13.95 18.04 13.95H53.46C54.21 13.95 54.82 13.34 54.82 12.59V3.06999C54.82 2.31999 54.21 1.70999 53.46 1.70999H2.16999C1.41999 1.70999 0.809998 2.31999 0.809998 3.06999V75.02C0.809998 75.77 1.41999 76.38 2.16999 76.38H54.7C55.45 76.38 56.06 75.77 56.06 75.02V65.5C56.06 64.75 55.45 64.14 54.7 64.14H18.05C17.3 64.14 16.69 63.53 16.69 62.78V45.58C16.69 44.83 17.3 44.22 18.05 44.22L18.04 44.25Z" fill="black" fill-opacity="0.4"/>
<path d="M145.31 38.86C145.31 23.51 136.29 0.700012 107.18 0.700012C78.07 0.700012 69.26 22.24 69.26 38.76C69.26 70.18 94.47 77.44 107.29 77.44C110.93 77.44 140.18 76.54 147.8 76.42C148.54 76.41 149.13 75.8 149.13 75.06V65.59C149.13 64.81 148.48 64.2 147.71 64.24L134.07 64.92C134.59 64.51 145.32 57.63 145.32 38.87L145.31 38.86ZM107.18 65.4C90.2 65.4 85.33 49.26 85.33 38.64C85.33 30.94 88.74 13.34 107.18 13.34C125.62 13.34 129.23 30.89 129.23 38.64C129.23 49.72 124.28 65.4 107.18 65.4Z" fill="black" fill-opacity="0.4"/>
<path d="M210.35 46.01C210.35 52.44 208.81 64.78 194.48 64.78C180.15 64.78 178.61 52.41 178.61 45.91V3.09001C178.61 2.34001 178 1.73001 177.25 1.73001H164.09C163.34 1.73001 162.73 2.34001 162.73 3.09001V43.11C162.73 54.31 165.02 77.44 194.37 77.44C223.72 77.44 226.21 54.38 226.21 43.32V3.09001C226.21 2.34001 225.6 1.73001 224.85 1.73001H211.69C210.94 1.73001 210.33 2.34001 210.33 3.09001V46.01H210.35Z" fill="black" fill-opacity="0.4"/>
<path d="M258.51 1.73001H245.36C244.609 1.73001 244 2.3389 244 3.09001V75.03C244 75.7811 244.609 76.39 245.36 76.39H258.51C259.261 76.39 259.87 75.7811 259.87 75.03V3.09001C259.87 2.3389 259.261 1.73001 258.51 1.73001Z" fill="black" fill-opacity="0.4"/>
<path d="M271.81 3.09001V12.61C271.81 13.36 272.42 13.97 273.17 13.97H294.68C295.43 13.97 296.04 14.58 296.04 15.33V75.05C296.04 75.8 296.65 76.41 297.4 76.41H310.56C311.31 76.41 311.92 75.8 311.92 75.05V15.33C311.92 14.58 312.53 13.97 313.28 13.97H334.79C335.54 13.97 336.15 13.36 336.15 12.61V3.09001C336.15 2.34001 335.54 1.73001 334.79 1.73001H273.19C272.44 1.73001 271.83 2.34001 271.83 3.09001H271.81Z" fill="black" fill-opacity="0.4"/>
<path d="M426.62 52.85C423.42 48.68 419.59 44.43 415.03 40.29C414.59 39.89 414.59 39.21 415.03 38.82C419.59 34.68 423.42 30.43 426.62 26.26C427.02 25.74 427.79 25.74 428.19 26.26C431.39 30.43 435.22 34.68 439.78 38.82C440.22 39.22 440.22 39.9 439.78 40.29C435.22 44.43 431.39 48.68 428.19 52.85C427.79 53.37 427.02 53.37 426.62 52.85Z" fill="black" fill-opacity="0.4"/>
<path d="M400.72 43.71C395.17 48.8 392.62 53.47 391.84 55.15C391.66 55.54 391.75 55.99 392.06 56.28C400.56 64.44 404.47 73.15 405.28 75.7C405.41 76.11 405.79 76.38 406.22 76.38H421.73C422.41 76.38 422.89 75.71 422.68 75.06C421.09 70.36 414.27 54.53 402.07 43.7C401.69 43.36 401.1 43.37 400.72 43.71Z" fill="black" fill-opacity="0.4"/>
<path d="M400.72 34.4C395.17 29.31 392.62 24.64 391.84 22.96C391.66 22.57 391.75 22.12 392.06 21.83C400.56 13.67 404.47 4.96001 405.28 2.41001C405.41 2.00001 405.79 1.73001 406.22 1.73001H421.73C422.41 1.73001 422.89 2.40001 422.68 3.05001C421.09 7.75001 414.27 23.58 402.07 34.41C401.69 34.75 401.1 34.74 400.72 34.4Z" fill="black" fill-opacity="0.4"/>
<path d="M387.05 38.17C369.2 26.97 363.3 6.65001 362.25 2.49001C362.14 2.05001 361.74 1.73001 361.28 1.73001H347.46C346.81 1.73001 346.33 2.34001 346.49 2.97001C347.84 8.17001 353.83 28.35 367.76 38.19C368.34 38.6 368.34 39.43 367.76 39.84C353.82 49.69 347.84 69.92 346.49 75.13C346.33 75.76 346.8 76.37 347.46 76.37H361.27C361.73 76.37 362.13 76.06 362.24 75.61C363.28 71.44 369.19 51.06 387.04 39.86C387.67 39.46 387.67 38.56 387.04 38.16L387.05 38.17Z" fill="black" fill-opacity="0.4"/>
</svg>
