<svg width="517" height="130" viewBox="0 0 517 130" fill="none" xmlns="http://www.w3.org/2000/svg">
<path d="M75.4772 0C84.0864 0 92.419 1.69417 100.302 5.01338C104.486 6.7767 108.496 9.02407 112.23 11.6518L111.435 12.0667L101.201 17.2875C93.3871 12.9311 84.5013 10.6491 75.4772 10.6491C75.3389 10.6491 75.2006 10.6491 75.0623 10.6491C68.1128 10.7183 61.336 12.1012 54.9397 14.7635C48.5433 17.4604 42.8038 21.2982 37.8942 26.2079C27.8674 36.2692 22.3354 49.6151 22.3354 63.7909C22.3354 66.1074 22.4738 68.4239 22.7849 70.7404L22.8887 71.4665L23.5456 71.1208L111.885 26.0696L130.175 16.7343L150.885 6.15435V18.1173L129.553 29.0084L119.076 34.333L25.9658 81.8736L25.5509 82.1156L20.7796 84.5359L15.9391 86.9907V86.9561L15.4896 87.1636L0 95.0813V83.1183L5.2554 80.456C9.64643 78.2086 12.2741 73.5756 11.8938 68.6314C11.7901 67.0064 11.7209 65.3813 11.7209 63.7563C11.7209 55.1471 13.4151 46.78 16.7343 38.8969C19.9498 31.2904 24.5483 24.4791 30.3914 18.6014C36.2346 12.7582 43.0459 8.12512 50.6524 4.90965C58.5009 1.69417 66.868 0 75.4772 0Z" fill="black" fill-opacity="0.4"/>
<path d="M150.92 34.1255V46.0885L145.664 48.7508C141.273 50.9981 138.646 55.6312 139.026 60.5754C139.164 62.2004 139.199 63.86 139.199 65.485C139.199 74.0942 137.505 82.4614 134.186 90.3445C130.97 97.951 126.372 104.762 120.528 110.64C114.685 116.518 107.839 121.116 100.268 124.332C92.419 127.651 84.0518 129.345 75.4427 129.345C66.8335 129.345 58.5009 127.651 50.6178 124.332C46.3997 122.534 42.389 120.286 38.6549 117.659L49.2348 112.265L49.6497 112.058C57.4637 116.414 66.384 118.731 75.4427 118.731C75.581 118.731 75.6847 118.731 75.823 118.731C82.7726 118.696 89.5493 117.313 95.9456 114.616C102.342 111.919 108.081 108.081 112.991 103.172C123.018 93.145 128.55 79.7645 128.55 65.5888C128.55 63.2722 128.412 60.9212 128.1 58.6046L127.997 57.8785L127.34 58.2243L38.9315 103.206L20.6413 112.542L0 123.052V111.089L21.2636 100.233L31.7399 94.9084L150.92 34.1255Z" fill="black" fill-opacity="0.4"/>
<path d="M257.584 43.8411H245.897C242.959 33.9181 233.278 30.5989 224.634 30.5989C218.03 30.5989 206.447 33.5378 206.447 43.115C206.447 50.687 212.463 54.4556 220.381 56.219L230.304 58.4663C243.408 61.3015 259.105 66.2457 259.105 83.4986C259.105 100.268 243.512 109.119 226.501 109.119C206.309 109.119 193.551 98.1239 191.303 81.0092H203.128C205.376 92.8339 213.639 98.9537 226.743 98.9537C239.363 98.9537 246.693 92.9376 246.693 84.5359C246.693 75.5464 239.017 71.7777 228.264 69.4266L217.65 67.1792C205.963 64.5861 194.139 58.086 194.139 43.8065C194.139 27.5217 211.253 20.4338 225.083 20.4338C240.469 20.4684 254.265 27.3143 257.584 43.8411Z" fill="black" fill-opacity="0.4"/>
<path d="M285.693 28.1441V44.0831H297.725V52.6923H285.693V90.3445C285.693 96.9483 286.177 98.6079 292.297 98.6079H297.725V107.597H289.946C277.776 107.597 274.94 104.866 274.94 91.6583V52.6923H264.914V44.0831H274.94V28.1441H285.693Z" fill="black" fill-opacity="0.4"/>
<path d="M334.098 99.7143C343.537 99.7143 348.723 95.4616 351.455 89.2035H362.553C359.615 100.198 349.553 109.153 334.098 109.153C314.01 109.153 302.912 94.7355 302.912 75.9613C302.912 55.8732 316.361 43.0113 333.718 43.0113C353.08 43.0113 364.766 59.2961 363.349 79.3842H314.46C314.978 93.0759 324.659 99.7143 334.098 99.7143ZM352.043 70.1873C351.801 61.1978 345.093 52.2428 333.752 52.2428C324.175 52.2428 315.566 57.4291 314.632 70.1873H352.043Z" fill="black" fill-opacity="0.4"/>
<path d="M373.548 107.597V21.9897H384.301V107.597H373.548Z" fill="black" fill-opacity="0.4"/>
<path d="M397.509 107.597V21.9897H408.262V107.597H397.509Z" fill="black" fill-opacity="0.4"/>
<path d="M461.161 68.5277V67.0064C461.161 55.4237 454.661 51.5513 446.744 51.5513C437.892 51.5513 432.706 56.3918 432.222 64.1712H421.123C422.195 50.4795 434.227 42.8039 446.64 42.8039C464.1 42.8039 472.018 51.171 471.914 69.0117L471.81 83.6369C471.707 94.2515 472.295 101.581 473.47 107.597H462.613C462.268 105.246 461.922 102.653 461.784 98.8499C457.877 105.35 451.273 109.119 440.071 109.119C428.142 109.119 418.219 102.515 418.219 90.8285C418.185 75.8576 435.057 71.4665 461.161 68.5277ZM430.113 90.6211C430.113 96.6371 434.711 100.648 442.387 100.648C452.414 100.648 461.991 96.0494 461.991 81.0438V77.0331C442.491 79.0385 430.113 81.8736 430.113 90.6211Z" fill="black" fill-opacity="0.4"/>
<path d="M510.984 54.836C501.061 54.836 496.117 60.4026 496.117 74.3363V107.632H485.364V44.0831H495.875V55.1817C499.056 47.9901 505.556 43.9794 513.819 43.7374C514.891 43.7374 515.824 43.7374 517 43.8411V55.2854C514.753 55.078 512.747 54.836 510.984 54.836Z" fill="black" fill-opacity="0.4"/>
</svg>
