<svg width="583" height="168" viewBox="0 0 583 168" fill="none" xmlns="http://www.w3.org/2000/svg">
<g clip-path="url(#clip0_1_57)">
<path d="M29.1394 23.7932V119.299H2.07669V2.0119H90.4488V23.7932H29.1394Z" fill="black" fill-opacity="0.4"/>
<path d="M182.829 93.4113C188.398 90.2282 192.77 85.7877 195.943 80.0911C199.117 74.3946 200.704 67.9177 200.704 60.6545C200.704 53.3955 199.117 46.9152 195.943 41.2179C192.77 35.5222 188.398 31.0816 182.829 27.8978C177.259 24.7148 171.023 23.1228 164.119 23.1228C157.212 23.1228 150.977 24.7148 145.409 27.8978C139.839 31.0816 135.469 35.5222 132.295 41.2179C129.121 46.9152 127.534 53.3955 127.534 60.6545C127.534 67.9177 129.121 74.3946 132.295 80.0911C135.469 85.7877 139.839 90.2282 145.409 93.4113C150.977 96.5951 157.212 98.187 164.119 98.187C171.023 98.187 177.259 96.5951 182.829 93.4113ZM131.293 113.434C121.546 108.185 113.919 100.952 108.406 91.7362C102.893 82.5206 100.137 72.1609 100.137 60.6545C100.137 49.1514 102.893 38.7892 108.406 29.5737C113.919 20.3582 121.546 13.1268 131.293 7.87561C141.037 2.62683 151.979 0 164.119 0C176.257 0 187.173 2.62683 196.862 7.87561C206.552 13.1268 214.179 20.3582 219.749 29.5737C225.317 38.7892 228.102 49.1514 228.102 60.6545C228.102 72.1609 225.317 82.5206 219.749 91.7362C214.179 100.952 206.552 108.185 196.862 113.434C187.173 118.686 176.257 121.309 164.119 121.309C151.979 121.309 141.037 118.686 131.293 113.434Z" fill="black" fill-opacity="0.4"/>
<path d="M312.798 29.4065C308.564 25.8875 302.383 24.1284 294.254 24.1284H272.203V65.0119H294.254C302.383 65.0119 308.564 63.2259 312.798 59.6498C317.029 56.0761 319.147 51.05 319.147 44.5697C319.147 37.9802 317.029 32.9247 312.798 29.4065ZM319.647 119.299L297.095 86.626H272.203V119.299H245.141V2.0119H295.758C306.116 2.0119 315.109 3.7441 322.738 7.20522C330.364 10.6688 336.241 15.5832 340.361 21.9501C344.481 28.3178 346.544 35.8574 346.544 44.5697C346.544 53.2829 344.455 60.7964 340.278 67.1062C336.102 73.4184 330.172 78.248 322.487 81.5999L348.715 119.299H319.647Z" fill="black" fill-opacity="0.4"/>
<path d="M446.941 58.8114H471.665V106.397C465.318 111.201 457.967 114.887 449.614 117.456C441.262 120.024 432.851 121.309 424.389 121.309C412.248 121.309 401.335 118.712 391.645 113.518C381.956 108.323 374.355 101.119 368.842 91.9033C363.329 82.6878 360.573 72.2734 360.573 60.6545C360.573 49.0389 363.329 38.6212 368.842 29.4057C374.355 20.191 382.011 12.9857 391.813 7.79161C401.611 2.59748 412.637 0 424.89 0C435.134 0 444.435 1.73383 452.788 5.19414C461.141 8.65771 468.157 13.6847 473.837 20.2742L456.463 36.359C448.11 27.5365 438.03 23.1228 426.226 23.1228C418.764 23.1228 412.135 24.6878 406.347 27.8146C400.554 30.943 396.043 35.3542 392.815 41.0507C389.583 46.748 387.971 53.2829 387.971 60.6545C387.971 67.9177 389.583 74.3938 392.815 80.0911C396.043 85.7877 400.525 90.2274 406.263 93.4113C411.997 96.5951 418.541 98.187 425.892 98.187C433.686 98.187 440.702 96.5111 446.941 93.1601V58.8114Z" fill="black" fill-opacity="0.4"/>
<path d="M580.585 97.5167V119.298H490.042V2.01111H578.413V23.7932H516.938V49.2615H571.23V70.3724H516.938V97.5167H580.585Z" fill="black" fill-opacity="0.4"/>
<path d="M8.53847 168.332C6.86753 168.332 5.25432 168.094 3.69721 167.618C2.14011 167.143 0.907431 166.512 0 165.726L1.39204 162.591C2.27915 163.295 3.36709 163.869 4.65587 164.314C5.94465 164.758 7.23912 164.981 8.53847 164.981C10.1468 164.981 11.3486 164.722 12.1422 164.205C12.9366 163.688 13.3334 163.006 13.3334 162.158C13.3334 161.537 13.1114 161.025 12.6683 160.621C12.2251 160.218 11.6633 159.903 10.9827 159.675C10.3021 159.448 9.37353 159.189 8.19778 158.899C6.54798 158.506 5.21285 158.113 4.19158 157.72C3.17113 157.327 2.2946 156.711 1.56198 155.874C0.830186 155.036 0.464286 153.904 0.464286 152.476C0.464286 151.277 0.788717 150.186 1.43839 149.203C2.08807 148.22 3.06786 147.44 4.37779 146.861C5.68689 146.281 7.29035 145.991 9.18815 145.991C10.5078 145.991 11.8072 146.157 13.0862 146.488C14.3644 146.819 15.4678 147.294 16.3964 147.915L15.1279 151.049C14.179 150.491 13.1895 150.066 12.1576 149.777C11.1266 149.487 10.1265 149.342 9.15725 149.342C7.56924 149.342 6.38861 149.611 5.61453 150.15C4.84126 150.687 4.45503 151.401 4.45503 152.29C4.45503 152.911 4.6762 153.417 5.12015 153.811C5.5633 154.204 6.12516 154.514 6.80573 154.741C7.48631 154.969 8.41488 155.228 9.58982 155.517C11.199 155.889 12.5186 156.278 13.5505 156.68C14.5815 157.084 15.4629 157.7 16.1955 158.527C16.9273 159.355 17.2932 160.471 17.2932 161.878C17.2932 163.077 16.9688 164.164 16.3191 165.136C15.6694 166.108 14.684 166.884 13.3643 167.463C12.0446 168.042 10.4363 168.332 8.53847 168.332Z" fill="black" fill-opacity="0.4"/>
<path d="M37.8966 168.332C35.6898 168.332 33.7002 167.851 31.926 166.889C30.1526 165.927 28.7605 164.593 27.7498 162.887C26.7391 161.18 26.2342 159.271 26.2342 157.162C26.2342 155.052 26.7391 153.143 27.7498 151.437C28.7605 149.73 30.1526 148.396 31.926 147.435C33.7002 146.472 35.6898 145.991 37.8966 145.991C40.1034 145.991 42.0939 146.472 43.8673 147.435C45.6415 148.396 47.0336 149.726 48.0442 151.421C49.0541 153.117 49.5599 155.031 49.5599 157.162C49.5599 159.293 49.0549 161.206 48.0442 162.902C47.0336 164.598 45.6415 165.927 43.8673 166.889C42.0939 167.851 40.1034 168.332 37.8966 168.332ZM37.8966 164.795C39.3407 164.795 40.6401 164.469 41.7947 163.817C42.9501 163.166 43.8575 162.255 44.517 161.087C45.1772 159.918 45.5073 158.61 45.5073 157.162C45.5073 155.714 45.1772 154.405 44.517 153.236C43.8575 152.068 42.9501 151.158 41.7947 150.506C40.6401 149.854 39.3407 149.529 37.8966 149.529C36.4534 149.529 35.154 149.854 33.9986 150.506C32.844 151.158 31.9365 152.068 31.2763 153.236C30.6169 154.405 30.2867 155.714 30.2867 157.162C30.2867 158.61 30.6169 159.918 31.2763 161.087C31.9365 162.255 32.844 163.166 33.9986 163.817C35.154 164.469 36.4534 164.795 37.8966 164.795Z" fill="black" fill-opacity="0.4"/>
<path d="M70.3487 168.332C68.163 168.332 66.188 167.851 64.4252 166.889C62.6615 165.927 61.2792 164.598 60.2791 162.902C59.279 161.206 58.7789 159.293 58.7789 157.162C58.7789 155.031 59.2839 153.117 60.2946 151.422C61.3053 149.726 62.6924 148.396 64.4552 147.435C66.2189 146.472 68.1939 145.991 70.3796 145.991C72.1538 145.991 73.7727 146.302 75.2371 146.923C76.7015 147.543 77.9391 148.443 78.9489 149.622L76.3502 152.073C74.7834 150.377 72.8547 149.529 70.5658 149.529C69.0802 149.529 67.75 149.854 66.575 150.506C65.3993 151.158 64.4813 152.063 63.8218 153.221C63.1616 154.38 62.8315 155.693 62.8315 157.162C62.8315 158.63 63.1616 159.944 63.8218 161.102C64.4813 162.261 65.3993 163.166 66.575 163.817C67.75 164.469 69.0802 164.795 70.5658 164.795C72.8547 164.795 74.7834 163.936 76.3502 162.22L78.9489 164.702C77.9391 165.88 76.6958 166.781 75.2216 167.401C73.7467 168.021 72.1229 168.332 70.3487 168.332Z" fill="black" fill-opacity="0.4"/>
<path d="M93.3345 146.302H89.3128V168.022H93.3345V146.302Z" fill="black" fill-opacity="0.4"/>
<path d="M121.919 164.639V168.022H105.678V146.302H121.487V149.684H109.7V155.331H120.157V158.651H109.7V164.639H121.919Z" fill="black" fill-opacity="0.4"/>
<path d="M137.295 149.715H130.118V146.302H148.494V149.715H141.317V168.021H137.295V149.715Z" fill="black" fill-opacity="0.4"/>
<path d="M174.264 164.639V168.022H158.022V146.302H173.831V149.684H162.044V155.331H172.501V158.651H162.044V164.639H174.264Z" fill="black" fill-opacity="0.4"/>
<path d="M215.068 156.914H218.874V165.571C217.76 166.459 216.46 167.143 214.976 167.618C213.491 168.094 211.965 168.332 210.397 168.332C208.19 168.332 206.201 167.851 204.426 166.889C202.653 165.927 201.261 164.598 200.25 162.902C199.24 161.206 198.735 159.293 198.735 157.162C198.735 155.031 199.24 153.117 200.25 151.422C201.261 149.726 202.658 148.396 204.442 147.435C206.226 146.472 208.232 145.991 210.459 145.991C212.274 145.991 213.924 146.291 215.409 146.892C216.894 147.491 218.142 148.37 219.153 149.529L216.616 152.011C214.966 150.356 212.976 149.529 210.645 149.529C209.119 149.529 207.763 149.85 206.577 150.491C205.391 151.132 204.463 152.032 203.792 153.19C203.122 154.349 202.787 155.672 202.787 157.162C202.787 158.61 203.122 159.913 203.792 161.071C204.463 162.23 205.391 163.139 206.577 163.802C207.763 164.464 209.108 164.795 210.614 164.795C212.306 164.795 213.79 164.422 215.068 163.678V156.914Z" fill="black" fill-opacity="0.4"/>
<path d="M246.903 164.639V168.022H230.661V146.302H246.469V149.684H234.682V155.331H245.139V158.651H234.682V164.639H246.903Z" fill="black" fill-opacity="0.4"/>
<path d="M277.127 146.302V168.021H273.817L261.875 153.314V168.021H257.884V146.302H261.195L273.136 161.009V146.302H277.127Z" fill="black" fill-opacity="0.4"/>
<path d="M305.681 164.639V168.022H289.44V146.302H305.248V149.684H293.461V155.331H303.918V158.651H293.461V164.639H305.681Z" fill="black" fill-opacity="0.4"/>
<path d="M330.832 168.022L326.408 161.661C326.223 161.681 325.944 161.692 325.573 161.692H320.685V168.021H316.663V146.302H325.573C327.45 146.302 329.084 146.612 330.476 147.232C331.868 147.853 332.936 148.743 333.678 149.901C334.421 151.06 334.792 152.435 334.792 154.027C334.792 155.662 334.395 157.069 333.601 158.248C332.807 159.427 331.668 160.306 330.182 160.885L335.163 168.021L330.832 168.022ZM330.739 154.028C330.739 152.643 330.285 151.578 329.378 150.833C328.47 150.088 327.14 149.716 325.387 149.716H320.685V158.373H325.387C327.14 158.373 328.47 157.995 329.378 157.24C330.285 156.485 330.739 155.415 330.739 154.028Z" fill="black" fill-opacity="0.4"/>
<path d="M359.819 162.995H348.992L346.857 168.021H342.711L352.456 146.302H356.416L366.192 168.021H361.985L359.819 162.995ZM358.489 159.83L354.405 150.336L350.353 159.83H358.489Z" fill="black" fill-opacity="0.4"/>
<path d="M375.442 146.302H379.464V164.608H390.786V168.021H375.442V146.302Z" fill="black" fill-opacity="0.4"/>
<path d="M416.711 164.639V168.022H400.47V146.302H416.278V149.684H404.491V155.331H414.948V158.651H404.491V164.639H416.711Z" fill="black" fill-opacity="0.4"/>
<path d="M457.516 156.914H461.321V165.571C460.207 166.459 458.908 167.143 457.423 167.618C455.939 168.094 454.412 168.332 452.845 168.332C450.638 168.332 448.647 167.851 446.874 166.889C445.101 165.927 443.709 164.598 442.698 162.902C441.687 161.206 441.181 159.293 441.181 157.162C441.181 155.031 441.687 153.117 442.698 151.422C443.709 149.726 445.105 148.396 446.889 147.435C448.673 146.472 450.679 145.991 452.906 145.991C454.721 145.991 456.371 146.291 457.857 146.892C459.341 147.491 460.589 148.37 461.599 149.529L459.062 152.011C457.413 150.356 455.423 149.529 453.092 149.529C451.566 149.529 450.21 149.85 449.024 150.491C447.838 151.132 446.91 152.032 446.24 153.19C445.57 154.349 445.235 155.672 445.235 157.162C445.235 158.61 445.57 159.913 446.24 161.071C446.91 162.23 447.838 163.139 449.024 163.802C450.21 164.464 451.556 164.795 453.061 164.795C454.752 164.795 456.238 164.422 457.516 163.678V156.914Z" fill="black" fill-opacity="0.4"/>
<path d="M487.277 168.022L482.852 161.661C482.667 161.681 482.389 161.692 482.017 161.692H477.13V168.021H473.108V146.302H482.017C483.894 146.302 485.529 146.612 486.921 147.232C488.313 147.853 489.38 148.743 490.123 149.901C490.866 151.06 491.236 152.435 491.236 154.027C491.236 155.662 490.84 157.069 490.045 158.248C489.252 159.427 488.112 160.306 486.627 160.885L491.608 168.021L487.277 168.022ZM487.184 154.028C487.184 152.643 486.73 151.578 485.823 150.833C484.915 150.088 483.585 149.716 481.832 149.716H477.13V158.373H481.832C483.585 158.373 484.915 157.995 485.823 157.24C486.73 156.485 487.184 155.415 487.184 154.028Z" fill="black" fill-opacity="0.4"/>
<path d="M512.335 168.332C510.128 168.332 508.138 167.851 506.364 166.889C504.591 165.927 503.199 164.593 502.188 162.887C501.178 161.18 500.672 159.271 500.672 157.162C500.672 155.052 501.178 153.143 502.188 151.437C503.199 149.73 504.591 148.396 506.364 147.435C508.138 146.472 510.128 145.991 512.335 145.991C514.542 145.991 516.532 146.472 518.306 147.435C520.079 148.396 521.472 149.726 522.482 151.421C523.493 153.117 523.998 155.031 523.998 157.162C523.998 159.293 523.493 161.206 522.482 162.902C521.472 164.598 520.079 165.927 518.306 166.889C516.532 167.851 514.542 168.332 512.335 168.332ZM512.335 164.795C513.779 164.795 515.079 164.469 516.233 163.817C517.388 163.166 518.295 162.255 518.955 161.087C519.616 159.918 519.946 158.61 519.946 157.162C519.946 155.714 519.616 154.405 518.955 153.236C518.295 152.068 517.388 151.158 516.233 150.506C515.079 149.854 513.779 149.529 512.335 149.529C510.892 149.529 509.592 149.854 508.437 150.506C507.282 151.158 506.375 152.068 505.715 153.236C505.054 154.405 504.725 155.714 504.725 157.162C504.725 158.61 505.054 159.918 505.715 161.087C506.375 162.255 507.282 163.166 508.437 163.817C509.592 164.469 510.892 164.795 512.335 164.795Z" fill="black" fill-opacity="0.4"/>
<path d="M544.076 168.332C541.085 168.332 538.755 167.489 537.084 165.803C535.414 164.117 534.578 161.702 534.578 158.558V146.302H538.6V158.403C538.6 162.664 540.435 164.795 544.106 164.795C547.757 164.795 549.582 162.664 549.582 158.403V146.302H553.542V158.558C553.542 161.702 552.712 164.117 551.052 165.803C549.392 167.489 547.066 168.332 544.076 168.332Z" fill="black" fill-opacity="0.4"/>
<path d="M574.579 146.302C576.455 146.302 578.09 146.612 579.483 147.232C580.875 147.853 581.941 148.743 582.684 149.901C583.427 151.06 583.798 152.435 583.798 154.027C583.798 155.6 583.427 156.971 582.684 158.139C581.941 159.308 580.875 160.203 579.483 160.823C578.09 161.444 576.455 161.754 574.579 161.754H569.691V168.022H565.669V146.302H574.579ZM574.393 158.341C576.146 158.341 577.477 157.968 578.384 157.224C579.291 156.479 579.745 155.414 579.745 154.027C579.745 152.642 579.291 151.577 578.384 150.832C577.477 150.088 576.146 149.715 574.393 149.715H569.691V158.341H574.393Z" fill="black" fill-opacity="0.4"/>
<path d="M68.5858 54.9083H44.4666V76.9579H68.5858V54.9083Z" fill="black" fill-opacity="0.4"/>
</g>
<defs>
<clipPath id="clip0_1_57">
<rect width="583" height="168" fill="white"/>
</clipPath>
</defs>
</svg>
